<svg width="179" height="26" viewBox="0 0 179 26" fill="none" xmlns="http://www.w3.org/2000/svg">
<path d="M19.486 3.738V25.5H14.185V16.541H5.93902V25.5H0.638015V3.738H5.93902V12.263H14.185V3.738H19.486ZM23.8088 16.82C23.8088 15.0427 24.1395 13.4823 24.8008 12.139C25.4828 10.7957 26.4025 9.76233 27.5598 9.039C28.7172 8.31567 30.0088 7.954 31.4348 7.954C32.6542 7.954 33.7185 8.202 34.6278 8.698C35.5578 9.194 36.2708 9.845 36.7668 10.651V8.202H42.0678V25.5H36.7668V23.051C36.2502 23.857 35.5268 24.508 34.5968 25.004C33.6875 25.5 32.6232 25.748 31.4038 25.748C29.9985 25.748 28.7172 25.3863 27.5598 24.663C26.4025 23.919 25.4828 22.8753 24.8008 21.532C24.1395 20.168 23.8088 18.5973 23.8088 16.82ZM36.7668 16.851C36.7668 15.5283 36.3948 14.4847 35.6508 13.72C34.9275 12.9553 34.0388 12.573 32.9848 12.573C31.9308 12.573 31.0318 12.9553 30.2878 13.72C29.5645 14.464 29.2028 15.4973 29.2028 16.82C29.2028 18.1427 29.5645 19.1967 30.2878 19.982C31.0318 20.7467 31.9308 21.129 32.9848 21.129C34.0388 21.129 34.9275 20.7467 35.6508 19.982C36.3948 19.2173 36.7668 18.1737 36.7668 16.851ZM58.0239 25.5L52.7539 18.246V25.5H47.4529V2.56H52.7539V15.239L57.9929 8.202H64.5339L57.3419 16.882L64.5959 25.5H58.0239ZM70.8319 6.404C69.9019 6.404 69.1373 6.13533 68.5379 5.598C67.9593 5.04 67.6699 4.358 67.6699 3.552C67.6699 2.72533 67.9593 2.04333 68.5379 1.506C69.1373 0.947998 69.9019 0.668998 70.8319 0.668998C71.7413 0.668998 72.4853 0.947998 73.0639 1.506C73.6633 2.04333 73.9629 2.72533 73.9629 3.552C73.9629 4.358 73.6633 5.04 73.0639 5.598C72.4853 6.13533 71.7413 6.404 70.8319 6.404ZM73.4669 8.202V25.5H68.1659V8.202H73.4669ZM100.931 8.016C103.08 8.016 104.785 8.667 106.046 9.969C107.327 11.271 107.968 13.0793 107.968 15.394V25.5H102.698V16.107C102.698 14.991 102.398 14.1333 101.799 13.534C101.22 12.914 100.414 12.604 99.3805 12.604C98.3472 12.604 97.5309 12.914 96.9315 13.534C96.3529 14.1333 96.0635 14.991 96.0635 16.107V25.5H90.7935V16.107C90.7935 14.991 90.4939 14.1333 89.8945 13.534C89.3159 12.914 88.5099 12.604 87.4765 12.604C86.4432 12.604 85.6269 12.914 85.0275 13.534C84.4489 14.1333 84.1595 14.991 84.1595 16.107V25.5H78.8585V8.202H84.1595V10.372C84.6969 9.64867 85.3995 9.08033 86.2675 8.667C87.1355 8.233 88.1172 8.016 89.2125 8.016C90.5145 8.016 91.6719 8.295 92.6845 8.853C93.7179 9.411 94.5239 10.2067 95.1025 11.24C95.7019 10.2893 96.5182 9.51433 97.5515 8.915C98.5849 8.31567 99.7112 8.016 100.931 8.016Z" fill="#424242"/>
<path d="M132.073 3.738V25.5H126.772V16.541H118.526V25.5H113.225V3.738H118.526V12.263H126.772V3.738H132.073ZM154.531 8.202V25.5H149.23V23.144C148.692 23.9087 147.959 24.5287 147.029 25.004C146.119 25.4587 145.107 25.686 143.991 25.686C142.668 25.686 141.5 25.3967 140.488 24.818C139.475 24.2187 138.69 23.361 138.132 22.245C137.574 21.129 137.295 19.8167 137.295 18.308V8.202H142.565V17.595C142.565 18.7523 142.864 19.6513 143.464 20.292C144.063 20.9327 144.869 21.253 145.882 21.253C146.915 21.253 147.731 20.9327 148.331 20.292C148.93 19.6513 149.23 18.7523 149.23 17.595V8.202H154.531ZM165.189 10.651C165.685 9.845 166.398 9.194 167.328 8.698C168.258 8.202 169.323 7.954 170.521 7.954C171.947 7.954 173.239 8.31567 174.396 9.039C175.554 9.76233 176.463 10.7957 177.124 12.139C177.806 13.4823 178.147 15.0427 178.147 16.82C178.147 18.5973 177.806 20.168 177.124 21.532C176.463 22.8753 175.554 23.919 174.396 24.663C173.239 25.3863 171.947 25.748 170.521 25.748C169.302 25.748 168.238 25.5103 167.328 25.035C166.419 24.539 165.706 23.888 165.189 23.082V25.5H159.888V2.56H165.189V10.651ZM172.753 16.82C172.753 15.4973 172.381 14.464 171.637 13.72C170.914 12.9553 170.015 12.573 168.94 12.573C167.886 12.573 166.987 12.9553 166.243 13.72C165.52 14.4847 165.158 15.5283 165.158 16.851C165.158 18.1737 165.52 19.2173 166.243 19.982C166.987 20.7467 167.886 21.129 168.94 21.129C169.994 21.129 170.893 20.7467 171.637 19.982C172.381 19.1967 172.753 18.1427 172.753 16.82Z" fill="#FF7272"/>
</svg>
