<svg width="17" height="18" viewBox="0 0 17 18" fill="none" xmlns="http://www.w3.org/2000/svg">
<path d="M13.2812 12.7271C12.5885 12.7271 12.0041 13.1722 11.7852 13.7896H5.21475C4.99481 13.1722 4.4115 12.7271 3.71875 12.7271C2.839 12.7271 2.125 13.4411 2.125 14.3208C2.125 15.2006 2.839 15.9146 3.71875 15.9146C4.4115 15.9146 4.99587 15.4694 5.21475 14.8521H11.7852C12.0052 15.4694 12.5885 15.9146 13.2812 15.9146C14.161 15.9146 14.875 15.2006 14.875 14.3208C14.875 13.4411 14.161 12.7271 13.2812 12.7271Z" fill="#424242"/>
<path d="M3.71875 2.10205C1.66813 2.10205 0 3.77018 0 5.8208C0 7.72905 2.9835 11.1089 3.3235 11.4882C3.42444 11.5997 3.56787 11.6646 3.71875 11.6646C3.86963 11.6646 4.01306 11.5997 4.114 11.4882C4.454 11.1089 7.4375 7.72905 7.4375 5.8208C7.4375 3.77018 5.76937 2.10205 3.71875 2.10205ZM3.71875 7.41455C2.839 7.41455 2.125 6.70055 2.125 5.8208C2.125 4.94105 2.839 4.22705 3.71875 4.22705C4.5985 4.22705 5.3125 4.94105 5.3125 5.8208C5.3125 6.70055 4.5985 7.41455 3.71875 7.41455Z" fill="#424242"/>
<path d="M13.2812 2.10205C11.2306 2.10205 9.5625 3.77018 9.5625 5.8208C9.5625 7.72905 12.546 11.1089 12.886 11.4882C12.9869 11.5997 13.1304 11.6646 13.2812 11.6646C13.4321 11.6646 13.5756 11.5997 13.6765 11.4882C14.0165 11.1089 17 7.72905 17 5.8208C17 3.77018 15.3319 2.10205 13.2812 2.10205ZM13.2812 7.41455C12.4015 7.41455 11.6875 6.70055 11.6875 5.8208C11.6875 4.94105 12.4015 4.22705 13.2812 4.22705C14.161 4.22705 14.875 4.94105 14.875 5.8208C14.875 6.70055 14.161 7.41455 13.2812 7.41455Z" fill="#424242"/>
</svg>
