<svg width="59" height="54" viewBox="0 0 59 54" fill="none" xmlns="http://www.w3.org/2000/svg">
<g clip-path="url(#clip0_1_165)">
<path d="M31.7855 29.3864C30.9324 30.2265 30.9149 31.6005 31.7549 32.4537C32.5949 33.307 33.96 33.3245 34.8219 32.4843C34.8831 32.4231 34.9444 32.3531 34.9969 32.2918C35.7406 35.8273 36.0644 36.2999 36.5325 36.2999C36.585 36.2999 36.6419 36.2911 36.7032 36.2824C37.3507 36.1905 37.3638 36.1905 37.8713 27.6405C37.8801 27.4655 37.8932 27.2861 37.902 27.1111C37.9107 27.2248 37.9238 27.343 37.9326 27.448C38.5495 33.832 38.5495 33.832 39.0089 34.0071C39.5995 34.239 39.9014 33.7052 40.5445 32.5369C40.7152 32.2349 40.9689 31.7667 41.1308 31.5392C41.8833 31.6223 43.944 31.7842 44.5609 30.9835C44.6834 30.8304 44.8453 30.5766 45.0203 30.2834C45.2522 29.9202 45.7335 29.1545 46.0353 28.8613C46.1753 29.032 46.3503 29.3164 46.4904 29.5395C47.0766 30.4759 47.7373 31.5305 48.6517 31.5523H48.6823L53.4512 31.5611H54.9956V32.2437C54.9956 34.996 52.7643 37.2188 50.0211 37.2188H42.229V45.0249C42.229 47.7684 39.9976 50 37.2457 50H33.7543C31.0111 50 28.7798 47.7684 28.7798 45.0249V37.2232H20.9745C18.2313 37.2232 16 35.0003 16 32.2481V28.7563C16 26.004 18.2313 23.7812 20.9745 23.7812H28.7798V15.9751C28.7798 13.2316 31.0111 11 33.7543 11H37.2457C39.9976 11 42.229 13.2316 42.229 15.9751V23.7812H50.0255C52.7687 23.7812 55 26.004 55 28.7563V30.4103H53.4556L48.7129 30.4015C48.7129 30.4015 48.7042 30.4015 48.6954 30.4015C48.3935 30.4015 47.7285 29.3339 47.4748 28.927C47.1423 28.4019 46.8841 27.9906 46.5822 27.7718C46.3985 27.6318 46.1578 27.588 45.9303 27.6318C45.3003 27.7543 44.7622 28.555 44.0534 29.6708C43.9003 29.9246 43.7603 30.1478 43.6684 30.2615C43.384 30.4978 41.7521 30.4759 41.0477 30.3622C40.492 30.279 40.2164 30.7604 39.5558 31.9549C39.4158 30.7472 39.2407 28.9182 39.0964 27.343C38.4663 20.8145 38.4663 20.8145 37.9107 20.7052C37.7444 20.6745 37.5694 20.7139 37.4382 20.8189C37.1319 21.0508 37.1144 21.064 36.725 27.5705C36.6157 29.3558 36.4932 31.5217 36.3707 33.1451C36.2481 32.6156 36.1038 31.9593 35.9419 31.1454L35.92 31.0623C35.8588 30.756 35.6838 30.5766 35.4256 30.4759C35.3469 30.0909 35.1587 29.7233 34.8569 29.4214C34.0168 28.5638 32.6474 28.5507 31.7855 29.3864Z" fill="url(#paint0_linear_1_165)"/>
</g>
<defs>
<linearGradient id="paint0_linear_1_165" x1="19.1655" y1="37.8223" x2="54.7579" y2="21.877" gradientUnits="userSpaceOnUse">
<stop offset="4.1024e-07" stop-color="#7175B7"/>
<stop offset="0.0934" stop-color="#6E71B3"/>
<stop offset="0.6815" stop-color="#5B5CA0"/>
<stop offset="1" stop-color="#54549A"/>
</linearGradient>
<clipPath id="clip0_1_165">
<rect width="59" height="59" fill="white" transform="translate(0 -5)"/>
</clipPath>
</defs>
</svg>
