<svg width="16" height="16" viewBox="0 0 16 16" fill="none" xmlns="http://www.w3.org/2000/svg">
<path d="M3.1675 6.57534C4.4275 8.96407 6.4575 10.9139 8.93375 12.1378L10.8587 10.2808C11.095 10.0529 11.445 9.97696 11.7513 10.0783C12.7312 10.3906 13.79 10.5594 14.875 10.5594C15.3562 10.5594 15.75 10.9392 15.75 11.4034V14.3493C15.75 14.8135 15.3562 15.1933 14.875 15.1933C6.65875 15.1933 0 8.76994 0 0.844075C0 0.379834 0.39375 0 0.875 0H3.9375C4.41875 0 4.8125 0.379834 4.8125 0.844075C4.8125 1.89917 4.9875 2.91206 5.31125 3.85742C5.4075 4.15285 5.3375 4.48204 5.0925 4.71838L3.1675 6.57534Z" fill="#424242"/>
</svg>
